<svg xmlns="http://www.w3.org/2000/svg" width="50" height="46" viewBox="0 0 50 46"><path fill="#000000" d="M1,0 C0.457,0.011 0,0.454 0,1 C0,1.552 0.448,2 1,2 C2.508,2.001 3.66075,2.43025 4.46875,3.28125 C6.54475,5.46625 6.28575,10.189 6.09375,14 C6.04175,15.033 6,16.014 6,16.875 C6,25.978 10.953,31.2725 20,31.9375 L20,25.90625 C13.411,25.38125 11,22.043 11,13.875 C11,7.016 9.798,0.003 1,0 Z M21,0 C20.448,0 20,0.448 20,1 C20,1.552 20.448,2 21,2 L22,2 L22,44 L21,44 C20.448,44 20,44.447 20,45 C20,45.553 20.448,46 21,46 L29,46 C29.553,46 30,45.553 30,45 C30,44.447 29.553,44 29,44 L28,44 L28,2 L29,2 C29.553,2 30,1.552 30,1 C30,0.448 29.553,0 29,0 L21,0 Z M49,0 C40.202,0.003 39,7.016 39,13.875 C39,22.043 36.589,25.38125 30,25.90625 L30,31.9375 C39.047,31.2725 44,25.978 44,16.875 C44,16.014 43.95925,15.033 43.90625,14 C43.71525,10.188 43.45425,5.46525 45.53125,3.28125 C46.33925,2.43025 47.493,2.001 49,2 C49.553,2 50,1.552 50,1 C50,0.448 49.553,0 49,0 Z"/></svg>